HIERARCHY
ROOT SpineBase
{
  OFFSET 0.000000 0.000000 0.000000
  CHANNELS 6 Xposition Yposition Zposition Zrotation Xrotation Yrotation
  JOINT SpineMid
  {
    OFFSET 0.000000 33.250930 -0.000000
    CHANNELS 3 Zrotation Xrotation Yrotation
    JOINT SpineShoulder
    {
      OFFSET 0.070954 24.723276 -0.920457
      CHANNELS 3 Zrotation Xrotation Yrotation
      JOINT Neck
      {
        OFFSET 0.041543 8.185060 -0.678325
        CHANNELS 3 Zrotation Xrotation Yrotation
        JOINT Head
        {
          OFFSET 0.018581 10.892331 3.632348
          CHANNELS 3 Zrotation Xrotation Yrotation
          End Site
          {
            OFFSET 0 0 0
          }
        }
      }
      JOINT ShoulderLeft
      {
        OFFSET -15.374040 -5.746515 -3.119351
        CHANNELS 3 Zrotation Xrotation Yrotation
        JOINT ElbowLeft
        {
          OFFSET -5.517660 -25.892740 3.300245
          CHANNELS 3 Zrotation Xrotation Yrotation
          JOINT WristLeft
          {
            OFFSET 12.535339 -15.063813 -12.854603
            CHANNELS 3 Zrotation Xrotation Yrotation
            JOINT HandLeft
            {
              OFFSET 2.160320 -5.900436 -0.758325
              CHANNELS 3 Zrotation Xrotation Yrotation
              JOINT HandTipLeft
              {
                OFFSET 4.998559 -7.162106 0.867886
                CHANNELS 3 Zrotation Xrotation Yrotation
                End Site
                {
                  OFFSET 0 0 0
                }
              }
              JOINT ThumbLeft
              {
                OFFSET 6.474130 6.395939 -2.500221
                CHANNELS 3 Zrotation Xrotation Yrotation
                End Site
                {
                  OFFSET 0 0 0
                }
              }
            }
          }
        }
      }
      JOINT ShoulderRight
      {
        OFFSET 15.513393 -5.911554 -3.759727
        CHANNELS 3 Zrotation Xrotation Yrotation
        JOINT ElbowRight
        {
          OFFSET 4.929330 -27.405064 3.214234
          CHANNELS 3 Zrotation Xrotation Yrotation
          JOINT WristRight
          {
            OFFSET 0.142649 -21.537696 4.100154
            CHANNELS 3 Zrotation Xrotation Yrotation
            JOINT HandRight
            {
              OFFSET -0.609427 -6.658937 3.122500
              CHANNELS 3 Zrotation Xrotation Yrotation
              JOINT HandTipRight
              {
                OFFSET -0.510758 -6.598940 0.356351
                CHANNELS 3 Zrotation Xrotation Yrotation
                End Site
                {
                  OFFSET 0 0 0
                }
              }
              JOINT ThumbRight
              {
                OFFSET 1.080713 -0.567220 -1.385074
                CHANNELS 3 Zrotation Xrotation Yrotation
                End Site
                {
                  OFFSET 0 0 0
                }
              }
            }
          }
        }
      }
    }
  }
  JOINT HipLeft
  {
    OFFSET -5.470683 1.169224 -3.663261
    CHANNELS 3 Zrotation Xrotation Yrotation
    JOINT KneeLeft
    {
      OFFSET -3.234742 -39.346851 -3.210219
      CHANNELS 3 Zrotation Xrotation Yrotation
      JOINT AnkleLeft
      {
        OFFSET -3.133984 -33.498593 -1.670088
        CHANNELS 3 Zrotation Xrotation Yrotation
        JOINT FootLeft
        {
          OFFSET 0.272509 -1.713604 -11.483710
          CHANNELS 3 Zrotation Xrotation Yrotation
          End Site
          {
            OFFSET 0 0 0
          }
        }
      }
    }
  }
  JOINT HipRight
  {
    OFFSET 6.080355 1.332002 -4.036725
    CHANNELS 3 Zrotation Xrotation Yrotation
    JOINT KneeRight
    {
      OFFSET 1.330526 -38.809005 -4.184666
      CHANNELS 3 Zrotation Xrotation Yrotation
      JOINT AnkleRight
      {
        OFFSET 0.675308 -34.296546 -2.244100
        CHANNELS 3 Zrotation Xrotation Yrotation
        JOINT FootRight
        {
          OFFSET 0.043160 -1.694282 -11.492644
          CHANNELS 3 Zrotation Xrotation Yrotation
          End Site
          {
            OFFSET 0 0 0
          }
        }
      }
    }
  }
}
MOTION
Frames: 12
Frame Time: 0.033333
-22.453788 75.803103 303.149067 -1.251543 5.172964 4.598281 0.126411 0.753405 -4.592464 -0.012964 0.254916 -0.067886 -1.386345 3.022634 0.947469 0.000000 0.000000 0.000000 -2.838872 -4.203055 -1.102849 4.592681 -0.600902 1.622736 -1.367667 19.458723 7.156688 1.507214 -16.320919 -3.325089 0.000000 0.000000 0.000000 0.000000 0.000000 0.000000 2.562512 -2.323255 1.152296 -3.004018 -1.061190 -1.263396 2.536750 1.911645 0.346381 -1.644838 -5.733827 -0.064864 0.000000 0.000000 0.000000 0.000000 0.000000 0.000000 -0.947907 -10.974495 -4.166790 0.423386 12.695391 -1.096657 0.839231 -5.841206 2.194429 0.000000 0.000000 0.000000 0.349464 -10.907152 -4.763888 -2.167730 10.950102 0.750114 1.875762 -4.368644 1.388083 0.000000 0.000000 0.000000
-22.198105 75.705731 303.624924 -1.551423 5.962604 4.444657 0.132423 0.664866 -4.425074 -0.008844 0.226948 -0.081605 -2.709525 8.002960 1.599576 0.000000 0.000000 0.000000 -3.324917 -4.117024 -1.404012 5.322761 -1.348620 1.953858 -1.641591 16.059618 5.959087 2.914074 -12.823520 -1.906667 0.000000 0.000000 0.000000 0.000000 0.000000 0.000000 3.035101 -2.680465 1.309915 -3.180082 -1.381170 -1.356600 -0.075224 3.644426 -1.056157 2.417735 -7.247775 1.670754 0.000000 0.000000 0.000000 0.000000 0.000000 0.000000 -0.461879 -14.568525 -3.801759 -0.043401 17.946315 -1.435525 1.106650 -8.256400 1.982952 0.000000 0.000000 0.000000 0.214595 -11.513611 -4.581216 -1.526003 11.373238 0.649046 1.989180 -2.922092 -0.558947 0.000000 0.000000 0.000000
-21.984944 75.613637 304.123511 -1.724214 6.602331 4.777492 0.136073 0.566745 -4.746366 -0.029401 0.268219 -0.092671 -4.460161 12.445038 2.445505 0.000000 0.000000 0.000000 -3.819878 -3.847638 -1.713071 5.766159 -2.599124 2.149494 -1.165929 12.192222 4.444182 3.417350 -10.324781 -1.728053 0.000000 0.000000 0.000000 0.000000 0.000000 0.000000 3.349384 -3.649494 1.325006 -3.128287 -0.318593 -1.239101 -2.836192 4.903694 -2.496843 6.826761 -8.734993 3.666129 0.000000 0.000000 0.000000 0.000000 0.000000 0.000000 -0.137716 -18.419785 -3.892298 -0.319485 23.464358 -1.843015 1.129599 -10.590129 1.772113 0.000000 0.000000 0.000000 -0.528025 -12.377796 -4.960400 -0.125426 12.673858 0.441574 1.140037 -6.305151 0.780911 0.000000 0.000000 0.000000
-21.815610 75.424068 304.906996 -2.042358 7.593588 4.002006 0.063897 0.373413 -3.954844 -0.071837 0.243480 -0.117447 -5.487090 15.812207 3.174675 0.000000 0.000000 0.000000 -4.099393 -3.674375 -2.021696 7.641388 -1.897777 2.821117 -3.834531 6.281117 2.763663 5.254602 -6.012431 -0.539865 0.000000 0.000000 0.000000 0.000000 0.000000 0.000000 3.740849 -5.019119 1.318498 -2.704908 2.190527 -0.993696 -5.006194 5.283604 -3.768506 10.093805 -9.575685 5.304176 0.000000 0.000000 0.000000 0.000000 0.000000 0.000000 0.766304 -22.344536 -2.758961 -0.253165 27.400615 -2.261564 0.854557 -11.645241 1.037238 0.000000 0.000000 0.000000 -0.716851 -13.081071 -4.160170 0.971290 13.421379 0.256874 0.600718 -9.457199 1.432809 0.000000 0.000000 0.000000
-21.743622 75.186136 306.221666 -2.507764 8.166339 3.095189 0.011883 0.519338 -3.024687 -0.017690 0.124554 -0.135708 -5.991202 18.026753 3.719117 0.000000 0.000000 0.000000 -4.113444 -3.155012 -2.287140 6.924551 -4.698025 2.875107 -2.950544 5.898447 2.413784 2.597914 -6.700499 -2.635364 0.000000 0.000000 0.000000 0.000000 0.000000 0.000000 3.863628 -6.143549 1.249213 -2.319101 3.931201 -0.809029 -5.925235 8.995130 -4.634344 12.265631 -13.081424 7.136351 0.000000 0.000000 0.000000 0.000000 0.000000 0.000000 1.884716 -24.890665 -1.483263 0.657419 29.008906 -2.839053 0.306104 -10.003937 -1.897628 0.000000 0.000000 0.000000 -0.289017 -12.373365 -3.106216 1.553630 12.973912 0.134089 0.313957 -12.026552 1.652163 0.000000 0.000000 0.000000
-21.632337 74.933160 307.631872 -2.791338 8.603185 2.324227 0.035597 0.600201 -2.228550 0.077217 0.003472 -0.135117 -6.279309 20.868977 4.085511 0.000000 0.000000 0.000000 -4.167199 -2.414640 -2.524051 4.026140 -9.929192 2.304165 -2.804057 3.767550 1.220321 2.277963 -2.190033 -2.689145 0.000000 0.000000 0.000000 0.000000 0.000000 0.000000 3.862930 -7.350682 1.114427 -2.229361 6.307098 -0.605769 -5.687233 12.073326 -5.018031 12.210869 -17.633150 8.137825 0.000000 0.000000 0.000000 0.000000 0.000000 0.000000 2.317168 -26.491580 -0.517767 2.728956 27.612907 -3.549616 -1.806261 -9.306412 -0.477698 0.000000 0.000000 0.000000 0.039266 -10.944239 -2.171411 1.810871 11.618875 0.062351 0.298322 -13.682794 1.336823 0.000000 0.000000 0.000000
-21.629830 74.599581 309.645999 -2.970110 8.802242 0.717454 0.049397 0.577426 -0.606412 0.157154 -0.077322 -0.130402 -7.450942 21.875151 4.677748 0.000000 0.000000 0.000000 -3.875254 -1.320255 -2.659843 -1.339590 -17.151471 0.802648 -3.549098 0.569311 -0.908938 1.981805 6.055298 -1.122228 0.000000 0.000000 0.000000 0.000000 0.000000 0.000000 4.401804 -8.198144 1.125492 -2.807964 8.230193 -0.501139 -4.765531 16.334088 -5.118869 11.279210 -22.586183 8.666715 0.000000 0.000000 0.000000 0.000000 0.000000 0.000000 3.210587 -26.993994 1.328480 4.484837 24.257067 -3.876156 -3.823503 -7.300689 0.878089 0.000000 0.000000 0.000000 0.804656 -7.874343 -0.313097 1.343077 8.577094 0.046513 0.588100 -14.313077 0.786414 0.000000 0.000000 0.000000
-21.798297 74.237368 311.785414 -3.183610 8.965942 -1.533640 0.065727 0.600580 1.663490 0.217444 -0.087350 -0.128655 -9.301124 23.355802 5.642949 0.000000 0.000000 0.000000 -3.371213 -0.265310 -2.770742 -9.040508 -25.973736 -2.613162 -3.003363 0.781284 -2.102513 1.118619 11.964760 0.111607 0.000000 0.000000 0.000000 0.000000 0.000000 0.000000 3.882227 -6.533045 1.303193 -2.137315 6.380840 -0.808669 -6.289990 27.579227 -6.579419 16.122742 -30.918198 13.612643 0.000000 0.000000 0.000000 0.000000 0.000000 0.000000 4.448750 -26.913479 3.855942 6.376365 20.166856 -4.055225 -5.785267 -4.770151 0.821643 0.000000 0.000000 0.000000 1.967002 -4.526646 2.170705 0.264961 5.512147 0.033019 1.158402 -14.314080 -1.316786 0.000000 0.000000 0.000000
-21.872098 73.907472 314.293095 -3.230118 9.153754 -4.517657 0.012536 0.615911 4.652826 0.230339 -0.117706 -0.130280 -9.793231 22.078914 5.752334 0.000000 0.000000 0.000000 -2.897712 1.326097 -2.981548 -19.369514 -35.522001 -8.487204 -0.089899 4.411456 -2.575633 -0.703136 18.042162 3.954065 0.000000 0.000000 0.000000 0.000000 0.000000 0.000000 2.733344 -3.646430 1.577608 -1.553414 3.385367 -1.384031 -4.110227 31.761529 -6.161937 14.147607 -28.529785 12.568374 0.000000 0.000000 0.000000 0.000000 0.000000 0.000000 5.603355 -26.123470 7.036197 8.049551 15.746073 -3.933078 -7.262447 -2.103354 -0.392541 0.000000 0.000000 0.000000 2.725973 -1.075863 5.304598 -0.982205 3.123533 -0.037252 2.019598 -14.298359 -4.251964 0.000000 0.000000 0.000000
-21.960870 73.498577 316.932614 -3.385531 8.711321 -8.494784 -0.042253 0.759662 8.630613 0.254640 0.057479 -0.129203 -8.927994 21.252396 5.391918 0.000000 0.000000 0.000000 -2.481037 2.709365 -3.110316 -31.845787 -43.284116 -17.231022 4.493364 10.882185 -2.127086 -3.243547 21.733063 7.912621 0.000000 0.000000 0.000000 0.000000 0.000000 0.000000 1.121989 -1.006168 1.704814 -0.924296 1.839353 -1.842766 3.116469 28.677731 -3.343394 2.296047 -27.983655 4.030457 0.000000 0.000000 0.000000 0.000000 0.000000 0.000000 6.948510 -24.948369 11.209692 9.726970 13.450537 -4.044888 -7.809580 1.549737 -5.159737 0.000000 0.000000 0.000000 3.321219 2.926968 9.357966 -2.675350 1.375582 -0.173777 3.265395 -14.146641 -7.330282 0.000000 0.000000 0.000000
-22.042736 73.086013 319.761715 -3.308217 8.256255 -12.334783 -0.014008 0.678663 12.458900 0.243463 0.055012 -0.124805 -8.240784 22.655302 5.187804 0.000000 0.000000 0.000000 -2.150261 4.412648 -3.217825 -44.029953 -48.026178 -26.240294 8.476002 16.952137 -1.701079 -5.301880 23.630110 10.958171 0.000000 0.000000 0.000000 0.000000 0.000000 0.000000 -1.960970 4.333947 2.198983 2.032979 -6.664993 -2.234476 9.347710 31.821185 -1.500184 -7.386122 -31.278893 -2.606752 0.000000 0.000000 0.000000 0.000000 0.000000 0.000000 7.909689 -23.289165 15.095347 11.054380 11.941989 -4.109649 -9.078416 -0.703269 -4.799874 0.000000 0.000000 0.000000 2.887006 5.136035 13.211691 -2.845395 2.161183 -0.198817 3.817797 -14.455298 -10.484636 0.000000 0.000000 0.000000
-22.181202 72.636375 322.522311 -3.165544 8.053211 -15.088189 0.107696 0.418618 15.202239 0.085482 0.107281 -0.138354 -6.408496 25.378443 4.569183 0.000000 0.000000 0.000000 -1.775821 5.699322 -3.285727 -52.695213 -50.136202 -32.483986 12.185321 21.021160 -2.344777 -8.340146 24.597571 13.851735 0.000000 0.000000 0.000000 0.000000 0.000000 0.000000 -2.656171 5.859275 2.377377 2.626667 -10.203595 -2.338148 14.888304 29.437455 0.658686 -11.803306 -24.863798 -6.326176 0.000000 0.000000 0.000000 0.000000 0.000000 0.000000 8.717341 -21.586332 17.820604 10.928274 11.286712 -3.881389 -9.283800 -2.890906 -5.147500 0.000000 0.000000 0.000000 3.123167 4.879104 15.867009 -3.249571 6.857782 0.009267 4.405941 -16.177554 -12.613646 0.000000 0.000000 0.000000
